<?xml version="1.0" encoding="UTF-8"?>
  <svg width="250" height="54" viewBox="0 0 250 54" version="1.1" xmlns="http://www.w3.org/2000/svg" xmlns:xlink="http://www.w3.org/1999/xlink">
    <g stroke="none" stroke-width="1" fill="none" fill-rule="evenodd">
      <g transform="translate(-130.000000, -73.000000)">
        <g transform="translate(130.000000, 73.000000)">
          <rect stroke="#0048ff" stroke-width="1" fill="#FFFFFF" x="0.5" y="0.5" width="249" height="53" rx="10"></rect>
          <text font-family="Helvetica-Bold, Helvetica" font-size="16" font-weight="bold" fill="#0048ff">
            <tspan x="52" y="34">Featured on Fazier </tspan>
          </text>
          <g transform="translate(201.000000, 13.000000)" fill="#0048ff">
            <g>
              <polygon points="26.0024997 10 15 10 20.5012498 0"></polygon>
              <text font-family="Helvetica-Bold, Helvetica" font-size="13" font-weight="bold" line-spacing="20">
                <tspan y="27">
                  <tspan x="14">44</tspan>
                </tspan>
              </text>
            </g>
          </g>
          <g transform="translate(1.000000, 5.000000)"><path d="M28 39C36.8366 39 44 31.8366 44 23C44 14.1634 36.8366 7 28 7C19.1634 7 12 14.1634 12 23C12 31.8366 19.1634 39 28 39Z" fill="#0048ff"/>
            <path d="M35.9456 13.4635H24.8672V17.3177H35.9456V13.4635Z" fill="#FFFFFF"/>
            <path d="M31.4886 21.3298H24.8672V25.1841H31.4886V21.3298Z" fill="#FFFFFF"/>
            <path d="M24.8671 17.3574H20.5879V21.3401H24.8671V17.3574Z" fill="#FFFFFF"/>
            <path d="M24.8671 25.194H20.5879V32.5467H24.8671V25.194Z" fill="#FFFFFF"/></g>
        </g>
      </g>
    </g>
  </svg>
