<svg width="141" height="40" viewBox="0 0 141 40" fill="none" xmlns="http://www.w3.org/2000/svg">
<rect x="0.5" y="1.28418" width="139.929" height="38" rx="19" fill="#1F2937"/>
<rect x="0.5" y="1.28418" width="139.929" height="38" rx="19" stroke="#374151"/>
<rect x="8.54297" y="7.34983" width="25.3859" height="26.4343" rx="12.6929" fill="url(#paint0_linear_330_14867)"/>
<path fill-rule="evenodd" clip-rule="evenodd" d="M12.4502 20.1827C13.0329 20.1827 13.4394 20.0556 13.6697 19.8012C13.9034 19.5469 14.0203 19.1218 14.0203 18.526V16.782C14.0203 16.2806 14.0657 15.8464 14.1564 15.4795C14.2506 15.1125 14.4024 14.8091 14.6117 14.5693C14.8211 14.3295 15.1002 14.1515 15.4491 14.0352C15.798 13.919 16.229 13.8608 16.7419 13.8608V14.929C16.3371 14.929 16.0179 14.9944 15.7841 15.1252C15.5538 15.256 15.3898 15.4595 15.2921 15.7356C15.1979 16.0081 15.1508 16.3569 15.1508 16.782V18.9619C15.1508 19.2453 15.1142 19.5033 15.0409 19.7358C14.9711 19.9684 14.8403 20.1682 14.6484 20.3353C14.4565 20.5024 14.1826 20.6314 13.8267 20.7223C13.7813 20.7339 13.7342 20.7449 13.6854 20.7551V20.9183C13.7342 20.9285 13.7813 20.9395 13.8267 20.9512C14.1826 21.042 14.4565 21.171 14.6484 21.3381C14.8403 21.5052 14.9711 21.7051 15.0409 21.9376C15.1142 22.1701 15.1508 22.4281 15.1508 22.7115V24.8914C15.1508 25.3165 15.1979 25.6653 15.2921 25.9378C15.3898 26.2103 15.5538 26.4119 15.7841 26.5427C16.0179 26.6772 16.3371 26.7444 16.7419 26.7444V27.8126C16.229 27.8126 15.798 27.7544 15.4491 27.6382C15.1002 27.5219 14.8211 27.3439 14.6117 27.1041C14.4024 26.8643 14.2506 26.5609 14.1564 26.1939C14.0657 25.827 14.0203 25.3928 14.0203 24.8914V23.1475C14.0203 22.5516 13.9034 22.1265 13.6697 21.8722C13.4394 21.6179 13.0329 21.4907 12.4502 21.4907V20.8585V20.8149V20.1827ZM30.5387 21.4907C29.956 21.4907 29.5478 21.6179 29.314 21.8722C29.0838 22.1265 28.9686 22.5516 28.9686 23.1475V24.8915C28.9686 25.3928 28.9215 25.827 28.8273 26.194C28.7366 26.5609 28.5866 26.8643 28.3772 27.1041C28.1679 27.3439 27.8887 27.5219 27.5398 27.6382C27.1909 27.7545 26.76 27.8126 26.2471 27.8126V26.7444C26.6518 26.7444 26.9693 26.6772 27.1996 26.5428C27.4334 26.412 27.5974 26.2103 27.6916 25.9378C27.7893 25.6653 27.8381 25.3165 27.8381 24.8915V22.7115C27.8381 22.4281 27.873 22.1701 27.9428 21.9376C28.0161 21.7051 28.1487 21.5053 28.3406 21.3381C28.5325 21.171 28.8046 21.042 29.157 20.9512C29.2041 20.9392 29.2529 20.928 29.3036 20.9176V20.7559C29.2529 20.7455 29.2041 20.7343 29.157 20.7223C28.8046 20.6315 28.5325 20.5025 28.3406 20.3353C28.1487 20.1682 28.0161 19.9684 27.9428 19.7359C27.873 19.5033 27.8381 19.2454 27.8381 18.962V16.782C27.8381 16.3569 27.7893 16.0081 27.6916 15.7356C27.5974 15.4595 27.4334 15.256 27.1996 15.1252C26.9693 14.9945 26.6518 14.9291 26.2471 14.9291V13.8609C26.76 13.8609 27.1909 13.919 27.5398 14.0353C27.8887 14.1515 28.1679 14.3296 28.3772 14.5694C28.5866 14.8092 28.7366 15.1125 28.8273 15.4795C28.9215 15.8465 28.9686 16.2806 28.9686 16.782V18.526C28.9686 19.1218 29.0838 19.5469 29.314 19.8013C29.5478 20.0556 29.956 20.1827 30.5387 20.1827V20.8149V20.8585V21.4907ZM23.2368 19.6753H25.2144C25.167 19.1701 25.0444 18.7212 24.8466 18.3285C24.6488 17.9358 24.3917 17.605 24.0753 17.3359C23.7589 17.0641 23.3923 16.8581 22.9757 16.7181C22.5591 16.5753 22.1055 16.5039 21.6151 16.5039C20.8952 16.5039 20.2452 16.6714 19.6651 17.0064C19.085 17.3414 18.6248 17.8315 18.2847 18.4768C17.9445 19.122 17.7744 19.9087 17.7744 20.8368C17.7744 21.7621 17.9419 22.5474 18.2767 23.1927C18.6116 23.838 19.0678 24.3295 19.6453 24.6672C20.2254 25.0022 20.882 25.1697 21.6151 25.1697C22.1715 25.1697 22.6646 25.0818 23.0944 24.9061C23.5268 24.7304 23.8934 24.4942 24.194 24.1977C24.4946 23.8984 24.7306 23.5675 24.902 23.2051C25.076 22.8426 25.1802 22.4747 25.2144 22.1012L23.2368 22.0889C23.2025 22.2921 23.1405 22.4747 23.0509 22.6367C22.9638 22.7959 22.8518 22.9318 22.7147 23.0444C22.5802 23.1543 22.4233 23.238 22.244 23.2957C22.0673 23.3533 21.8708 23.3822 21.6546 23.3822C21.2696 23.3822 20.9361 23.2874 20.6539 23.098C20.3744 22.9058 20.1569 22.6216 20.0013 22.2454C19.8483 21.8665 19.7719 21.3969 19.7719 20.8368C19.7719 20.2986 19.847 19.8401 19.9973 19.4611C20.1503 19.0822 20.3678 18.7925 20.65 18.5921C20.9347 18.3917 21.2736 18.2914 21.6665 18.2914C21.888 18.2914 22.0897 18.3244 22.2717 18.3903C22.4562 18.4534 22.6158 18.5454 22.7503 18.6662C22.8847 18.787 22.9929 18.9326 23.0746 19.1028C23.1563 19.2731 23.2104 19.4639 23.2368 19.6753Z" fill="black"/>
<path d="M42.2384 11.3296V12.1819H39.156V11.3296H42.2384ZM40.0012 16.7842V10.6975C40.0012 10.3566 40.0757 10.0737 40.2249 9.84881C40.374 9.62154 40.5717 9.45227 40.8179 9.341C41.0641 9.22736 41.3316 9.17054 41.6205 9.17054C41.8335 9.17054 42.0158 9.1883 42.1673 9.22381C42.3189 9.25695 42.4313 9.28773 42.5047 9.31614L42.2561 10.1755C42.2064 10.1613 42.1425 10.1447 42.0644 10.1258C41.9862 10.1045 41.8915 10.0938 41.7803 10.0938C41.5222 10.0938 41.3376 10.1578 41.2263 10.2856C41.1174 10.4134 41.0629 10.5981 41.0629 10.8396V16.7842H40.0012ZM45.4699 16.8943C44.9325 16.8943 44.4697 16.7794 44.0814 16.5498C43.6955 16.3178 43.3972 15.9923 43.1865 15.5732C42.9782 15.1518 42.874 14.6582 42.874 14.0924C42.874 13.5337 42.9782 13.0413 43.1865 12.6151C43.3972 12.189 43.6908 11.8564 44.0672 11.6173C44.446 11.3782 44.8887 11.2586 45.3953 11.2586C45.7031 11.2586 46.0014 11.3095 46.2902 11.4113C46.579 11.5131 46.8383 11.6729 47.0679 11.8907C47.2976 12.1085 47.4787 12.3914 47.6112 12.7394C47.7438 13.0851 47.8101 13.5053 47.8101 14.0001V14.3765H43.4742V13.5811H46.7696C46.7696 13.3017 46.7128 13.0543 46.5992 12.8389C46.4855 12.6211 46.3257 12.4494 46.1198 12.324C45.9162 12.1985 45.6771 12.1357 45.4024 12.1357C45.1041 12.1357 44.8437 12.2091 44.6212 12.3559C44.401 12.5003 44.2306 12.6897 44.1098 12.9241C43.9914 13.1561 43.9323 13.4082 43.9323 13.6805V14.3019C43.9323 14.6665 43.9962 14.9767 44.124 15.2323C44.2542 15.488 44.4353 15.6833 44.6673 15.8183C44.8994 15.9508 45.1704 16.0171 45.4806 16.0171C45.6818 16.0171 45.8653 15.9887 46.031 15.9319C46.1967 15.8727 46.3399 15.7851 46.4607 15.6691C46.5814 15.5531 46.6737 15.4099 46.7377 15.2394L47.7426 15.4205C47.6621 15.7165 47.5177 15.9757 47.3094 16.1982C47.1034 16.4184 46.8442 16.5901 46.5317 16.7132C46.2216 16.8339 45.8676 16.8943 45.4699 16.8943ZM50.5756 16.9049C50.2299 16.9049 49.9174 16.841 49.6381 16.7132C49.3587 16.5829 49.1373 16.3947 48.974 16.1485C48.813 15.9023 48.7325 15.6005 48.7325 15.243C48.7325 14.9352 48.7917 14.6819 48.9101 14.483C49.0284 14.2842 49.1882 14.1267 49.3895 14.0107C49.5907 13.8947 49.8156 13.8071 50.0642 13.748C50.3128 13.6888 50.5661 13.6438 50.8241 13.613C51.1508 13.5751 51.416 13.5444 51.6196 13.5207C51.8232 13.4946 51.9711 13.4532 52.0635 13.3964C52.1558 13.3396 52.202 13.2472 52.202 13.1194V13.0945C52.202 12.7844 52.1144 12.5441 51.9392 12.3737C51.7664 12.2032 51.5083 12.118 51.165 12.118C50.8076 12.118 50.5258 12.1973 50.3199 12.3559C50.1163 12.5122 49.9754 12.6862 49.8973 12.8779L48.8994 12.6507C49.0178 12.3192 49.1906 12.0517 49.4179 11.8481C49.6475 11.6421 49.9115 11.493 50.2098 11.4007C50.5081 11.306 50.8218 11.2586 51.1508 11.2586C51.3686 11.2586 51.5995 11.2847 51.8433 11.3367C52.0895 11.3865 52.3192 11.4788 52.5322 11.6137C52.7477 11.7487 52.924 11.9416 53.0613 12.1926C53.1987 12.4411 53.2673 12.7643 53.2673 13.162V16.7842H52.2304V16.0384H52.1878C52.1191 16.1758 52.0161 16.3107 51.8788 16.4433C51.7415 16.5758 51.5651 16.6859 51.3497 16.7735C51.1343 16.8611 50.8762 16.9049 50.5756 16.9049ZM50.8064 16.0526C51.0999 16.0526 51.3509 15.9946 51.5592 15.8786C51.7699 15.7626 51.9297 15.6111 52.0386 15.4241C52.1499 15.2347 52.2055 15.0323 52.2055 14.8169V14.1137C52.1676 14.1516 52.0943 14.1871 51.9854 14.2203C51.8788 14.251 51.7569 14.2783 51.6196 14.3019C51.4823 14.3232 51.3485 14.3434 51.2183 14.3623C51.0881 14.3789 50.9792 14.3931 50.8916 14.4049C50.6856 14.431 50.4974 14.4748 50.327 14.5363C50.1589 14.5979 50.0239 14.6866 49.9221 14.8026C49.8227 14.9163 49.773 15.0678 49.773 15.2572C49.773 15.52 49.8701 15.7188 50.0642 15.8538C50.2583 15.9864 50.5057 16.0526 50.8064 16.0526ZM57.2277 11.3296V12.1819H54.2483V11.3296H57.2277ZM55.0473 10.0228H56.1091V15.1826C56.1091 15.3886 56.1399 15.5436 56.2014 15.6478C56.263 15.7496 56.3423 15.8195 56.4394 15.8573C56.5388 15.8928 56.6465 15.9106 56.7625 15.9106C56.8477 15.9106 56.9223 15.9047 56.9862 15.8928C57.0502 15.881 57.0999 15.8715 57.1354 15.8644L57.3271 16.7416C57.2656 16.7652 57.178 16.7889 57.0644 16.8126C56.9507 16.8386 56.8087 16.8528 56.6382 16.8552C56.3589 16.8599 56.0985 16.8102 55.857 16.7061C55.6155 16.6019 55.4202 16.4409 55.271 16.2231C55.1219 16.0053 55.0473 15.7319 55.0473 15.4028V10.0228ZM61.8575 14.5221V11.3296H62.9229V16.7842H61.8788V15.8396H61.822C61.6965 16.1308 61.4953 16.3734 61.2183 16.5676C60.9437 16.7593 60.6016 16.8552 60.192 16.8552C59.8416 16.8552 59.5315 16.7783 59.2616 16.6244C58.9941 16.4681 58.7834 16.2373 58.6295 15.9319C58.478 15.6265 58.4023 15.2489 58.4023 14.7991V11.3296H59.464V14.6713C59.464 15.0429 59.567 15.3389 59.773 15.559C59.979 15.7792 60.2465 15.8893 60.5756 15.8893C60.7744 15.8893 60.9721 15.8396 61.1686 15.7401C61.3675 15.6407 61.532 15.4904 61.6622 15.2892C61.7948 15.0879 61.8599 14.8322 61.8575 14.5221ZM64.3495 16.7842V11.3296H65.3758V12.1961H65.4326C65.532 11.9026 65.7072 11.6717 65.9582 11.5036C66.2115 11.3332 66.498 11.248 66.8176 11.248C66.8838 11.248 66.962 11.2503 67.0519 11.2551C67.1443 11.2598 67.2165 11.2657 67.2686 11.2728V12.2884C67.2259 12.2766 67.1502 12.2636 67.0413 12.2494C66.9324 12.2328 66.8235 12.2245 66.7146 12.2245C66.4636 12.2245 66.2399 12.2778 66.0434 12.3843C65.8493 12.4885 65.6954 12.6341 65.5818 12.8211C65.4681 13.0058 65.4113 13.2165 65.4113 13.4532V16.7842H64.3495ZM70.343 16.8943C69.8055 16.8943 69.3427 16.7794 68.9545 16.5498C68.5686 16.3178 68.2703 15.9923 68.0596 15.5732C67.8512 15.1518 67.7471 14.6582 67.7471 14.0924C67.7471 13.5337 67.8512 13.0413 68.0596 12.6151C68.2703 12.189 68.5638 11.8564 68.9403 11.6173C69.319 11.3782 69.7617 11.2586 70.2684 11.2586C70.5761 11.2586 70.8744 11.3095 71.1633 11.4113C71.4521 11.5131 71.7113 11.6729 71.941 11.8907C72.1706 12.1085 72.3517 12.3914 72.4843 12.7394C72.6169 13.0851 72.6832 13.5053 72.6832 14.0001V14.3765H68.3472V13.5811H71.6427C71.6427 13.3017 71.5858 13.0543 71.4722 12.8389C71.3586 12.6211 71.1988 12.4494 70.9928 12.324C70.7892 12.1985 70.5501 12.1357 70.2755 12.1357C69.9772 12.1357 69.7168 12.2091 69.4942 12.3559C69.2741 12.5003 69.1036 12.6897 68.9829 12.9241C68.8645 13.1561 68.8053 13.4082 68.8053 13.6805V14.3019C68.8053 14.6665 68.8692 14.9767 68.9971 15.2323C69.1273 15.488 69.3084 15.6833 69.5404 15.8183C69.7724 15.9508 70.0435 16.0171 70.3536 16.0171C70.5548 16.0171 70.7383 15.9887 70.904 15.9319C71.0698 15.8727 71.213 15.7851 71.3337 15.6691C71.4545 15.5531 71.5468 15.4099 71.6107 15.2394L72.6157 15.4205C72.5352 15.7165 72.3908 15.9757 72.1824 16.1982C71.9765 16.4184 71.7172 16.5901 71.4047 16.7132C71.0946 16.8339 70.7407 16.8943 70.343 16.8943ZM75.9031 16.8907C75.4628 16.8907 75.0698 16.7783 74.7242 16.5534C74.3809 16.3261 74.111 16.0029 73.9145 15.5839C73.7204 15.1625 73.6233 14.657 73.6233 14.0676C73.6233 13.4781 73.7216 12.9738 73.9181 12.5548C74.1169 12.1357 74.3892 11.815 74.7348 11.5924C75.0805 11.3699 75.4723 11.2586 75.9102 11.2586C76.2488 11.2586 76.521 11.3154 76.727 11.4291C76.9353 11.5403 77.0963 11.6705 77.21 11.8197C77.326 11.9688 77.4159 12.1002 77.4798 12.2139H77.5438V9.51145H78.6056V16.7842H77.5686V15.9355H77.4798C77.4159 16.0515 77.3236 16.184 77.2029 16.3332C77.0845 16.4823 76.9211 16.6125 76.7128 16.7238C76.5045 16.8351 76.2346 16.8907 75.9031 16.8907ZM76.1375 15.9852C76.4429 15.9852 76.701 15.9047 76.9117 15.7437C77.1247 15.5803 77.2857 15.3543 77.3946 15.0654C77.5059 14.7766 77.5615 14.4404 77.5615 14.0569C77.5615 13.6781 77.5071 13.3467 77.3982 13.0626C77.2893 12.7785 77.1295 12.5571 76.9188 12.3985C76.7081 12.2399 76.4477 12.1606 76.1375 12.1606C75.8179 12.1606 75.5516 12.2435 75.3385 12.4092C75.1254 12.5749 74.9645 12.801 74.8556 13.0874C74.749 13.3739 74.6958 13.6971 74.6958 14.0569C74.6958 14.4215 74.7502 14.7494 74.8591 15.0406C74.968 15.3318 75.129 15.5626 75.3421 15.733C75.5575 15.9011 75.8227 15.9852 76.1375 15.9852ZM84.3548 16.9049C84.0092 16.9049 83.6967 16.841 83.4173 16.7132C83.138 16.5829 82.9166 16.3947 82.7533 16.1485C82.5923 15.9023 82.5118 15.6005 82.5118 15.243C82.5118 14.9352 82.571 14.6819 82.6894 14.483C82.8077 14.2842 82.9675 14.1267 83.1688 14.0107C83.37 13.8947 83.5949 13.8071 83.8435 13.748C84.0921 13.6888 84.3454 13.6438 84.6034 13.613C84.9301 13.5751 85.1953 13.5444 85.3989 13.5207C85.6025 13.4946 85.7504 13.4532 85.8428 13.3964C85.9351 13.3396 85.9813 13.2472 85.9813 13.1194V13.0945C85.9813 12.7844 85.8937 12.5441 85.7185 12.3737C85.5457 12.2032 85.2876 12.118 84.9443 12.118C84.5869 12.118 84.3051 12.1973 84.0992 12.3559C83.8956 12.5122 83.7547 12.6862 83.6766 12.8779L82.6787 12.6507C82.7971 12.3192 82.9699 12.0517 83.1972 11.8481C83.4268 11.6421 83.6908 11.493 83.9891 11.4007C84.2874 11.306 84.6011 11.2586 84.9301 11.2586C85.1479 11.2586 85.3788 11.2847 85.6226 11.3367C85.8688 11.3865 86.0985 11.4788 86.3115 11.6137C86.527 11.7487 86.7033 11.9416 86.8406 12.1926C86.978 12.4411 87.0466 12.7643 87.0466 13.162V16.7842H86.0097V16.0384H85.9671C85.8984 16.1758 85.7954 16.3107 85.6581 16.4433C85.5208 16.5758 85.3444 16.6859 85.129 16.7735C84.9136 16.8611 84.6555 16.9049 84.3548 16.9049ZM84.5857 16.0526C84.8792 16.0526 85.1302 15.9946 85.3385 15.8786C85.5492 15.7626 85.709 15.6111 85.8179 15.4241C85.9292 15.2347 85.9848 15.0323 85.9848 14.8169V14.1137C85.9469 14.1516 85.8736 14.1871 85.7646 14.2203C85.6581 14.251 85.5362 14.2783 85.3989 14.3019C85.2616 14.3232 85.1278 14.3434 84.9976 14.3623C84.8674 14.3789 84.7585 14.3931 84.6709 14.4049C84.4649 14.431 84.2767 14.4748 84.1063 14.5363C83.9382 14.5979 83.8032 14.6866 83.7014 14.8026C83.602 14.9163 83.5523 15.0678 83.5523 15.2572C83.5523 15.52 83.6494 15.7188 83.8435 15.8538C84.0376 15.9864 84.285 16.0526 84.5857 16.0526ZM91.007 11.3296V12.1819H88.0276V11.3296H91.007ZM88.8266 10.0228H89.8884V15.1826C89.8884 15.3886 89.9192 15.5436 89.9807 15.6478C90.0423 15.7496 90.1216 15.8195 90.2187 15.8573C90.3181 15.8928 90.4258 15.9106 90.5418 15.9106C90.627 15.9106 90.7016 15.9047 90.7655 15.8928C90.8295 15.881 90.8792 15.8715 90.9147 15.8644L91.1064 16.7416C91.0449 16.7652 90.9573 16.7889 90.8437 16.8126C90.73 16.8386 90.588 16.8528 90.4175 16.8552C90.1382 16.8599 89.8778 16.8102 89.6363 16.7061C89.3948 16.6019 89.1995 16.4409 89.0503 16.2231C88.9012 16.0053 88.8266 15.7319 88.8266 15.4028V10.0228Z" fill="#F9FAFB"/>
<path d="M43.1844 30.9333C42.4221 30.9333 41.7675 30.766 41.2206 30.4312C40.6771 30.0964 40.2578 29.6341 39.9628 29.0441C39.6711 28.4508 39.5253 27.7681 39.5253 26.9958C39.5253 26.2203 39.6744 25.5358 39.9727 24.9426C40.271 24.346 40.692 23.882 41.2355 23.5505C41.7824 23.2158 42.4287 23.0484 43.1744 23.0484C43.7942 23.0484 44.3428 23.1627 44.82 23.3914C45.3006 23.6168 45.6834 23.9366 45.9685 24.3509C46.2535 24.7619 46.4159 25.2425 46.4557 25.7927H44.7355C44.6659 25.4248 44.5002 25.1182 44.2384 24.873C43.9798 24.6244 43.6335 24.5001 43.1993 24.5001C42.8314 24.5001 42.5083 24.5995 42.2298 24.7984C41.9514 24.9939 41.7343 25.2757 41.5786 25.6436C41.4261 26.0115 41.3499 26.4523 41.3499 26.966C41.3499 27.4864 41.4261 27.9338 41.5786 28.3083C41.731 28.6795 41.9448 28.9662 42.2199 29.1684C42.4983 29.3673 42.8248 29.4667 43.1993 29.4667C43.4645 29.4667 43.7014 29.417 43.9102 29.3176C44.1224 29.2148 44.2997 29.0673 44.4422 28.8751C44.5847 28.6829 44.6825 28.4492 44.7355 28.1741H46.4557C46.4126 28.7143 46.2535 29.1933 45.9784 29.6109C45.7033 30.0252 45.3288 30.35 44.8548 30.5853C44.3809 30.8173 43.8241 30.9333 43.1844 30.9333ZM51.2645 30.9333C50.5187 30.9333 49.8724 30.7693 49.3256 30.4411C48.7787 30.113 48.3544 29.654 48.0528 29.064C47.7545 28.474 47.6054 27.7847 47.6054 26.9958C47.6054 26.207 47.7545 25.516 48.0528 24.9227C48.3544 24.3294 48.7787 23.8687 49.3256 23.5406C49.8724 23.2124 50.5187 23.0484 51.2645 23.0484C52.0102 23.0484 52.6565 23.2124 53.2034 23.5406C53.7503 23.8687 54.1729 24.3294 54.4711 24.9227C54.7728 25.516 54.9236 26.207 54.9236 26.9958C54.9236 27.7847 54.7728 28.474 54.4711 29.064C54.1729 29.654 53.7503 30.113 53.2034 30.4411C52.6565 30.7693 52.0102 30.9333 51.2645 30.9333ZM51.2744 29.4916C51.6788 29.4916 52.0168 29.3805 52.2886 29.1585C52.5604 28.9331 52.7626 28.6315 52.8952 28.2536C53.031 27.8758 53.099 27.4549 53.099 26.9909C53.099 26.5235 53.031 26.1009 52.8952 25.7231C52.7626 25.3419 52.5604 25.0387 52.2886 24.8133C52.0168 24.5879 51.6788 24.4752 51.2744 24.4752C50.8601 24.4752 50.5154 24.5879 50.2403 24.8133C49.9685 25.0387 49.7647 25.3419 49.6288 25.7231C49.4962 26.1009 49.43 26.5235 49.43 26.9909C49.43 27.4549 49.4962 27.8758 49.6288 28.2536C49.7647 28.6315 49.9685 28.9331 50.2403 29.1585C50.5154 29.3805 50.8601 29.4916 51.2744 29.4916ZM59.2849 30.9184C58.685 30.9184 58.1481 30.7643 57.6741 30.4561C57.2001 30.1478 56.8256 29.7004 56.5505 29.1137C56.2754 28.5271 56.1379 27.8145 56.1379 26.9759C56.1379 26.1275 56.2771 25.4115 56.5555 24.8282C56.8372 24.2416 57.2167 23.7991 57.694 23.5008C58.1713 23.1992 58.7032 23.0484 59.2899 23.0484C59.7373 23.0484 60.1052 23.1246 60.3936 23.2771C60.6819 23.4262 60.9106 23.6069 61.0796 23.819C61.2487 24.0278 61.3796 24.225 61.4724 24.4106H61.547V20.6024H63.3517V30.7842H61.5818V29.5811H61.4724C61.3796 29.7667 61.2454 29.9639 61.0697 30.1727C60.894 30.3782 60.662 30.5538 60.3737 30.6997C60.0853 30.8455 59.7224 30.9184 59.2849 30.9184ZM59.787 29.4419C60.1682 29.4419 60.493 29.3391 60.7615 29.1336C61.0299 28.9248 61.2338 28.6348 61.373 28.2636C61.5122 27.8924 61.5818 27.4598 61.5818 26.966C61.5818 26.4722 61.5122 26.0429 61.373 25.6784C61.2371 25.3138 61.0349 25.0304 60.7664 24.8282C60.5013 24.626 60.1748 24.5249 59.787 24.5249C59.386 24.5249 59.0512 24.6293 58.7828 24.8382C58.5143 25.047 58.3121 25.3353 58.1762 25.7032C58.0403 26.0711 57.9724 26.492 57.9724 26.966C57.9724 27.4433 58.0403 27.8692 58.1762 28.2437C58.3154 28.6149 58.5193 28.9082 58.7877 29.1237C59.0595 29.3358 59.3926 29.4419 59.787 29.4419ZM68.6501 30.9333C67.8845 30.9333 67.2233 30.7742 66.6665 30.4561C66.113 30.1346 65.6871 29.6805 65.3888 29.0938C65.0905 28.5039 64.9413 27.8095 64.9413 27.0107C64.9413 26.2252 65.0905 25.5358 65.3888 24.9426C65.6904 24.346 66.1113 23.882 66.6515 23.5505C67.1918 23.2158 67.8265 23.0484 68.5557 23.0484C69.0263 23.0484 69.4704 23.1246 69.8881 23.2771C70.309 23.4262 70.6802 23.6582 71.0017 23.9731C71.3265 24.288 71.5817 24.689 71.7673 25.1762C71.9529 25.6601 72.0457 26.2368 72.0457 26.9063V27.4582H65.7865V26.2451H70.3206C70.3173 25.9004 70.2427 25.5938 70.0969 25.3254C69.951 25.0536 69.7472 24.8398 69.4854 24.684C69.2268 24.5283 68.9252 24.4504 68.5805 24.4504C68.2126 24.4504 67.8895 24.5399 67.6111 24.7188C67.3327 24.8945 67.1156 25.1265 66.9598 25.4149C66.8073 25.6999 66.7294 26.0131 66.7261 26.3545V27.4134C66.7261 27.8576 66.8073 28.2387 66.9697 28.5569C67.1321 28.8718 67.3592 29.1137 67.6508 29.2828C67.9425 29.4485 68.2839 29.5313 68.675 29.5313C68.9368 29.5313 69.1738 29.4949 69.3859 29.422C69.598 29.3457 69.782 29.2347 69.9378 29.0889C70.0935 28.943 70.2112 28.7624 70.2907 28.547L71.9711 28.7359C71.8651 29.18 71.6629 29.5678 71.3646 29.8992C71.0696 30.2274 70.6918 30.4826 70.2311 30.6649C69.7704 30.8438 69.2434 30.9333 68.6501 30.9333ZM74.6769 30.8936C74.3753 30.8936 74.1168 30.7875 73.9014 30.5754C73.6859 30.3633 73.5799 30.1047 73.5832 29.7998C73.5799 29.5015 73.6859 29.2463 73.9014 29.0342C74.1168 28.8221 74.3753 28.716 74.6769 28.716C74.9686 28.716 75.2222 28.8221 75.4376 29.0342C75.6563 29.2463 75.7674 29.5015 75.7707 29.7998C75.7674 30.002 75.7143 30.1859 75.6116 30.3517C75.5122 30.5174 75.3796 30.6499 75.2139 30.7494C75.0515 30.8455 74.8725 30.8936 74.6769 30.8936ZM77.6288 30.7842V23.1478H79.349V24.4454H79.4385C79.5976 24.0079 79.8611 23.6665 80.229 23.4213C80.5969 23.1727 81.036 23.0484 81.5464 23.0484C82.0635 23.0484 82.4993 23.1743 82.854 23.4262C83.2119 23.6748 83.4638 24.0145 83.6096 24.4454H83.6892C83.8582 24.0212 84.1433 23.6831 84.5443 23.4312C84.9487 23.176 85.4276 23.0484 85.9811 23.0484C86.6837 23.0484 87.2571 23.2704 87.7013 23.7146C88.1454 24.1587 88.3675 24.8067 88.3675 25.6585V30.7842H86.5628V25.9369C86.5628 25.4629 86.4368 25.1166 86.1849 24.8978C85.933 24.6758 85.6248 24.5647 85.2602 24.5647C84.826 24.5647 84.4863 24.7006 84.241 24.9724C83.9991 25.2409 83.8781 25.5905 83.8781 26.0214V30.7842H82.1132V25.8623C82.1132 25.4679 81.9939 25.153 81.7552 24.9177C81.5199 24.6824 81.2117 24.5647 80.8305 24.5647C80.572 24.5647 80.3367 24.631 80.1246 24.7636C79.9124 24.8928 79.7434 25.0768 79.6175 25.3154C79.4915 25.5508 79.4285 25.8258 79.4285 26.1407V30.7842H77.6288ZM92.3907 30.9383C91.9068 30.9383 91.471 30.8521 91.0832 30.6798C90.6987 30.5041 90.3938 30.2456 90.1684 29.9042C89.9463 29.5628 89.8353 29.1419 89.8353 28.6414C89.8353 28.2106 89.9149 27.8543 90.074 27.5725C90.233 27.2908 90.4501 27.0654 90.7252 26.8964C91.0003 26.7274 91.3102 26.5998 91.6549 26.5136C92.0029 26.4241 92.3625 26.3595 92.7338 26.3197C93.1812 26.2733 93.5441 26.2319 93.8225 26.1954C94.1009 26.1556 94.3031 26.096 94.4291 26.0164C94.5583 25.9336 94.623 25.806 94.623 25.6336V25.6038C94.623 25.2293 94.5119 24.9392 94.2899 24.7338C94.0678 24.5283 93.748 24.4255 93.3303 24.4255C92.8895 24.4255 92.5399 24.5216 92.2813 24.7139C92.0261 24.9061 91.8538 25.1331 91.7643 25.395L90.0839 25.1563C90.2165 24.6923 90.4352 24.3045 90.7401 23.993C91.0451 23.6781 91.4179 23.4428 91.8588 23.287C92.2996 23.1279 92.7868 23.0484 93.3204 23.0484C93.6883 23.0484 94.0545 23.0915 94.4191 23.1776C94.7837 23.2638 95.1168 23.4063 95.4184 23.6052C95.72 23.8008 95.962 24.0676 96.1443 24.4056C96.3299 24.7437 96.4227 25.1663 96.4227 25.6734V30.7842H94.6926V29.7352H94.6329C94.5235 29.9473 94.3694 30.1462 94.1705 30.3318C93.975 30.5141 93.7281 30.6615 93.4298 30.7742C93.1348 30.8836 92.7884 30.9383 92.3907 30.9383ZM92.858 29.6159C93.2193 29.6159 93.5325 29.5446 93.7977 29.4021C94.0628 29.2562 94.2667 29.064 94.4092 28.8254C94.555 28.5867 94.6279 28.3266 94.6279 28.0448V27.145C94.5716 27.1914 94.4755 27.2345 94.3396 27.2742C94.207 27.314 94.0579 27.3488 93.8921 27.3786C93.7264 27.4085 93.5624 27.435 93.3999 27.4582C93.2375 27.4814 93.0967 27.5013 92.9774 27.5178C92.7089 27.5543 92.4686 27.614 92.2565 27.6968C92.0444 27.7797 91.877 27.8957 91.7544 28.0448C91.6317 28.1907 91.5704 28.3796 91.5704 28.6116C91.5704 28.943 91.6914 29.1933 91.9333 29.3623C92.1753 29.5313 92.4835 29.6159 92.858 29.6159ZM98.2323 30.7842V23.1478H99.9774V24.4205H100.057C100.196 23.9797 100.435 23.64 100.773 23.4014C101.114 23.1594 101.504 23.0384 101.941 23.0384C102.041 23.0384 102.152 23.0434 102.274 23.0534C102.4 23.06 102.505 23.0716 102.587 23.0882V24.7437C102.511 24.7172 102.39 24.694 102.225 24.6741C102.062 24.6509 101.905 24.6393 101.752 24.6393C101.424 24.6393 101.129 24.7106 100.867 24.8531C100.609 24.9923 100.405 25.1862 100.256 25.4347C100.107 25.6833 100.032 25.97 100.032 26.2948V30.7842H98.2323ZM105.424 28.3879L105.419 26.2153H105.707L108.451 23.1478H110.554L107.179 26.9063H106.806L105.424 28.3879ZM103.783 30.7842V20.6024H105.583V30.7842H103.783ZM108.576 30.7842L106.09 27.309L107.303 26.0413L110.728 30.7842H108.576ZM114.82 30.9333C114.054 30.9333 113.393 30.7742 112.836 30.4561C112.283 30.1346 111.857 29.6805 111.559 29.0938C111.26 28.5039 111.111 27.8095 111.111 27.0107C111.111 26.2252 111.26 25.5358 111.559 24.9426C111.86 24.346 112.281 23.882 112.821 23.5505C113.362 23.2158 113.996 23.0484 114.726 23.0484C115.196 23.0484 115.64 23.1246 116.058 23.2771C116.479 23.4262 116.85 23.6582 117.172 23.9731C117.496 24.288 117.752 24.689 117.937 25.1762C118.123 25.6601 118.216 26.2368 118.216 26.9063V27.4582H111.956V26.2451H116.491C116.487 25.9004 116.413 25.5938 116.267 25.3254C116.121 25.0536 115.917 24.8398 115.655 24.684C115.397 24.5283 115.095 24.4504 114.75 24.4504C114.383 24.4504 114.059 24.5399 113.781 24.7188C113.503 24.8945 113.285 25.1265 113.13 25.4149C112.977 25.6999 112.899 26.0131 112.896 26.3545V27.4134C112.896 27.8576 112.977 28.2387 113.14 28.5569C113.302 28.8718 113.529 29.1137 113.821 29.2828C114.112 29.4485 114.454 29.5313 114.845 29.5313C115.107 29.5313 115.344 29.4949 115.556 29.422C115.768 29.3457 115.952 29.2347 116.108 29.0889C116.263 28.943 116.381 28.7624 116.461 28.547L118.141 28.7359C118.035 29.18 117.833 29.5678 117.535 29.8992C117.24 30.2274 116.862 30.4826 116.401 30.6649C115.94 30.8438 115.413 30.9333 114.82 30.9333ZM123.551 23.1478V24.5399H119.161V23.1478H123.551ZM120.245 21.3183H122.045V28.4873C122.045 28.7293 122.081 28.9149 122.154 29.0441C122.231 29.1701 122.33 29.2562 122.453 29.3026C122.575 29.349 122.711 29.3722 122.86 29.3722C122.973 29.3722 123.076 29.364 123.169 29.3474C123.265 29.3308 123.338 29.3159 123.387 29.3026L123.691 30.7096C123.594 30.7427 123.457 30.7792 123.278 30.819C123.102 30.8588 122.887 30.882 122.632 30.8886C122.181 30.9018 121.775 30.8339 121.414 30.6847C121.052 30.5323 120.766 30.297 120.554 29.9788C120.345 29.6606 120.242 29.2629 120.245 28.7856V21.3183Z" fill="#F9FAFB"/>
<defs>
<linearGradient id="paint0_linear_330_14867" x1="21.2359" y1="33.7841" x2="21.2359" y2="7.75124" gradientUnits="userSpaceOnUse">
<stop stop-color="#EBEBEB"/>
<stop offset="1" stop-color="white"/>
</linearGradient>
</defs>
</svg>
