<?xml version="1.0" encoding="UTF-8" standalone="no"?>
<!DOCTYPE svg PUBLIC "-//W3C//DTD SVG 1.1//EN" "http://www.w3.org/Graphics/SVG/1.1/DTD/svg11.dtd">
<svg xmlns="http://www.w3.org/2000/svg" version="1.1" viewBox="0.00 0.00 1200.00 228.00">
<rect fill="#fafafa" x="546.36" y="9.19" width="46.14" height="45.60" rx="20.76"/>
<path fill="#fafafa" d="
  M 1169.32 8.91
  C 1182.89 8.75 1192.76 18.10 1192.92 31.76
  C 1193.08 45.42 1183.43 55.00 1169.86 55.16
  C 1156.30 55.32 1146.43 45.97 1146.27 32.31
  C 1146.11 18.65 1155.76 9.07 1169.32 8.91
  Z"
/>
<path fill="#fafafa" d="
  M 816.73 131.00
  Q 816.73 131.73 817.22 131.19
  L 865.51 76.84
  A 1.09 1.07 20.9 0 1 866.31 76.49
  L 910.73 76.49
  Q 911.30 76.49 910.92 76.91
  L 862.41 130.78
  Q 862.10 131.13 862.34 131.53
  L 913.53 220.20
  Q 913.84 220.73 913.22 220.73
  L 866.03 220.73
  A 1.06 1.03 -13.5 0 1 865.10 220.18
  Q 857.01 205.13 849.17 190.09
  Q 848.70 189.18 841.82 176.34
  Q 837.54 168.34 834.76 162.42
  A 0.45 0.44 53.2 0 0 834.03 162.31
  L 817.49 180.92
  A 3.00 2.99 -24.4 0 0 816.74 182.90
  L 816.74 220.51
  A 0.23 0.23 0.0 0 1 816.51 220.74
  L 776.23 220.74
  A 0.24 0.23 -90.0 0 1 776.00 220.50
  L 776.00 20.97
  A 0.26 0.25 -0.0 0 1 776.26 20.72
  L 816.23 20.72
  Q 816.73 20.72 816.73 21.22
  L 816.73 131.00
  Z"
/>
<path fill="#fafafa" d="
  M 108.00 149.06
  Q 150.82 63.39 161.78 41.34
  Q 163.95 36.97 165.71 33.12
  Q 166.01 32.48 166.71 32.48
  L 200.73 32.48
  A 0.39 0.38 -76.9 0 1 201.07 33.04
  L 121.60 201.33
  A 1.18 1.17 -77.2 0 1 120.54 202.00
  L 94.28 202.00
  Q 93.83 202.00 93.67 201.57
  Q 91.99 197.02 90.11 192.48
  Q 57.05 112.64 48.78 92.67
  C 48.44 91.85 48.28 90.72 47.87 89.93
  Q 47.21 88.69 47.07 90.11
  Q 46.96 91.10 46.97 94.03
  Q 47.04 140.28 46.99 220.49
  Q 46.99 221.00 46.48 221.00
  L 9.97 221.00
  A 0.26 0.26 0.0 0 1 9.71 220.74
  L 9.71 33.00
  Q 9.71 32.48 10.24 32.48
  L 56.31 32.48
  Q 56.96 32.48 57.22 33.07
  L 107.23 149.04
  A 0.42 0.42 0.0 0 0 108.00 149.06
  Z"
/>

<path fill="#fafafa" d="
  M 1076.26 205.46
  Q 1076.26 203.20 1074.99 205.06
  Q 1066.77 217.06 1052.27 220.73
  Q 1039.36 224.01 1023.58 222.27
  Q 1012.14 221.01 1003.34 215.10
  Q 992.85 208.05 988.24 195.27
  Q 985.93 188.83 985.52 180.86
  Q 985.13 173.05 987.10 166.43
  Q 990.17 156.14 997.53 148.34
  Q 1004.01 141.47 1013.83 136.97
  Q 1029.40 129.83 1047.24 131.11
  Q 1063.22 132.26 1075.27 142.54
  Q 1075.72 142.93 1075.71 142.34
  Q 1075.71 137.59 1075.76 132.80
  Q 1075.81 127.29 1074.74 123.49
  Q 1071.73 112.79 1062.01 108.89
  Q 1052.15 104.92 1039.62 106.65
  Q 1023.67 108.86 1009.05 116.48
  Q 1008.55 116.74 1008.29 116.24
  L 995.32 90.78
  A 0.66 0.65 -25.3 0 1 995.65 89.88
  Q 998.69 88.58 1002.86 86.65
  Q 1029.43 74.34 1058.74 74.12
  C 1076.46 73.98 1096.50 79.66 1107.06 95.10
  Q 1115.76 107.82 1115.92 123.57
  Q 1116.09 140.27 1115.97 219.99
  Q 1115.97 220.50 1115.47 220.50
  L 1076.75 220.50
  Q 1076.26 220.50 1076.26 220.01
  L 1076.26 205.46
  Z
  M 1027.70 162.95
  Q 1022.59 169.25 1023.67 177.79
  Q 1025.23 190.06 1037.43 193.23
  Q 1046.65 195.63 1057.08 192.85
  Q 1065.65 190.56 1071.43 183.68
  Q 1076.03 178.19 1075.85 170.74
  Q 1075.70 164.15 1075.69 162.25
  Q 1075.69 161.79 1075.39 161.43
  Q 1074.38 160.23 1072.97 159.38
  Q 1058.15 150.54 1041.63 154.44
  Q 1037.59 155.39 1034.03 157.52
  Q 1030.31 159.74 1027.70 162.95
  Z"
/>
<path fill="#fafafa" d="
  M 448.39 109.86
  C 446.47 114.05 447.13 118.93 450.49 122.26
  Q 453.24 124.97 458.51 127.25
  Q 460.61 128.16 471.87 131.87
  C 472.58 132.10 473.53 132.98 474.46 133.29
  Q 481.39 135.57 488.28 137.95
  C 490.93 138.87 492.96 139.94 496.13 141.38
  Q 505.94 145.83 512.82 153.94
  C 519.46 161.75 521.39 173.23 520.16 183.29
  Q 518.10 200.17 505.26 210.50
  Q 493.24 220.17 476.25 222.25
  Q 436.24 227.15 403.81 204.05
  Q 403.29 203.69 403.56 203.12
  L 415.62 177.60
  A 0.76 0.76 0.0 0 1 416.75 177.30
  Q 429.55 186.33 444.80 191.04
  Q 454.76 194.11 466.04 194.02
  C 472.89 193.96 481.06 190.99 481.83 183.03
  Q 482.44 176.64 476.63 172.62
  Q 471.07 168.77 464.94 166.82
  Q 453.79 163.28 446.74 161.02
  Q 442.54 159.68 434.05 155.79
  Q 424.04 151.22 418.04 143.90
  C 411.00 135.30 409.33 124.69 410.50 113.45
  C 411.84 100.59 419.09 89.30 430.26 82.77
  Q 436.82 78.94 444.50 77.00
  C 469.34 70.73 497.02 76.76 518.99 89.53
  Q 519.38 89.76 519.19 90.17
  L 506.72 116.58
  A 0.73 0.72 26.4 0 1 505.73 116.91
  Q 497.63 112.58 491.47 109.85
  Q 483.49 106.32 473.50 104.04
  C 465.98 102.33 452.37 101.19 448.39 109.86
  Z"
/>
<path fill="#fafafa" d="
  M 656.80 148.34
  Q 656.80 151.60 657.45 154.53
  Q 660.43 168.07 670.68 175.56
  C 684.53 185.69 703.02 184.94 715.99 173.37
  Q 718.47 171.15 718.87 170.82
  Q 719.28 170.47 719.72 170.80
  L 749.67 192.92
  Q 750.52 193.55 749.84 194.35
  Q 734.18 212.82 712.27 219.08
  C 673.08 230.28 633.03 208.72 620.51 170.81
  Q 616.97 160.09 616.96 148.37
  Q 616.95 136.65 620.48 125.92
  C 632.95 88.00 672.97 66.38 712.17 77.53
  Q 734.09 83.76 749.78 102.21
  Q 750.46 103.00 749.61 103.64
  L 719.69 125.80
  Q 719.25 126.13 718.84 125.78
  Q 718.44 125.45 715.96 123.23
  C 702.97 111.68 684.48 110.96 670.64 121.10
  Q 660.40 128.61 657.44 142.15
  Q 656.80 145.08 656.80 148.34
  Z"
/>
<path fill="#fafafa" d="
  M 334.98 197.73
  A 0.29 0.29 0.0 0 0 334.43 197.59
  Q 329.25 207.06 321.01 213.91
  C 314.76 219.11 308.23 221.62 300.34 222.05
  Q 289.23 222.66 283.45 222.14
  Q 257.68 219.82 246.52 197.81
  Q 239.95 184.86 239.97 168.36
  Q 240.06 112.20 239.95 76.59
  A 0.31 0.31 0.0 0 1 240.26 76.28
  L 280.28 76.28
  A 0.45 0.45 0.0 0 1 280.73 76.73
  Q 280.73 94.83 280.74 150.82
  C 280.74 160.68 281.88 168.63 287.58 176.08
  Q 290.48 179.88 295.27 182.03
  C 305.82 186.76 317.71 184.11 325.66 175.68
  Q 330.95 170.06 333.27 161.60
  Q 335.19 154.62 335.22 147.57
  Q 335.39 108.59 335.24 77.18
  Q 335.24 76.55 335.87 76.56
  Q 336.62 76.58 340.31 76.46
  Q 346.36 76.26 375.75 76.28
  A 0.25 0.25 0.0 0 1 376.00 76.53
  L 376.00 219.99
  Q 376.00 220.50 375.50 220.50
  L 335.48 220.50
  A 0.51 0.50 90.0 0 1 334.98 219.99
  L 334.98 197.73
  Z"
/>
<rect fill="#fafafa" x="549.29" y="76.27" width="40.72" height="144.22" rx="0.49"/>
<rect fill="#fafafa" x="1149.51" y="76.27" width="40.50" height="144.22" rx="0.49"/>
<path fill="#fafafa" d="
  M 168.48 220.69
  Q 168.61 205.89 168.41 191.50
  Q 168.10 168.99 168.34 139.59
  Q 168.35 138.89 168.99 137.27
  Q 175.59 120.70 186.14 106.15
  Q 193.80 95.59 204.31 88.17
  A 0.44 0.44 0.0 0 1 205.00 88.53
  L 205.00 220.50
  Q 205.00 221.00 204.50 221.00
  L 168.78 221.00
  A 0.30 0.30 0.0 0 1 168.48 220.69
  Z"
/>
<path fill="#fafafa" d="
  M 946.89 179.56
  C 959.12 179.37 966.57 188.52 966.76 200.24
  C 966.94 211.97 959.78 221.35 947.55 221.54
  C 935.32 221.73 927.87 212.58 927.68 200.85
  C 927.50 189.13 934.66 179.75 946.89 179.56
  Z"
/>
</svg>
